# xmcd
#
# Track frame offsets:
# 150
# 18212
# 41804
# 56914
# 73401
# 91099
# 106888
# 125837
# 134552
# 149343
# 158731
#
# Disc length: 2416 seconds
#
#
# Revision: 0
# Processed by: cddbd v1.5.1PL0 Copyright (c) Steve Scherf et al.
# Submitted via: FreeRIP 2.942 
#
DISCID=a3096e0b
DTITLE=Remnant - Anthem of A Life
DYEAR=2004
DGENRE=Hip Hop
TTITLE0=Nervs
TTITLE1=Still Shedding
TTITLE2=Hard Boiled
TTITLE3=One Cell
TTITLE4=Broken
TTITLE5=Is
TTITLE6=My Wild Love
TTITLE7=Autumn Drive
TTITLE8=Yes Today
TTITLE9=Numbers Game
TTITLE10=Bonus
EXTD=
EXTT0=
EXTT1=
EXTT2=
EXTT3=
EXTT4=
EXTT5=
EXTT6=
EXTT7=
EXTT8=
EXTT9=
EXTT10=
PLAYORDER=
